<svg xmlns="http://www.w3.org/2000/svg" viewBox="0 0 1890.75 1318.02"><path d="M60.22,389.33l362.2,819.44c10.69-20.31,20.3-38.46,29.79-56.66q159.7-306.27,319.38-612.55,27.18-52.12,54.52-104.17c1.55-2.93,2.37-7.82,6.2-7.64s4.11,5.19,5.41,8.26Q918.41,627,998.88,818q106.39,253.58,212.27,507.38c.54,1.29,1.21,2.54,1.62,3.87,2.37,7.68,4.81,9.79,11.06,2.13q45.43-55.76,91.75-110.78c4.2-5,3.56-9,1.12-14.18-26.49-56.76-52.74-113.63-79.21-170.39Q1163,876.2,1088.12,716.52c-4.12-8.77-2-11.95,6.23-15.41Q1426,562.35,1757.45,423.19q89.54-37.54,179.06-75.12c3.48-1.46,7.07-2.69,11.94-4.53-1.34,5.46-5.1,6.92-7.86,8.94Q1643.74,570.92,1346.8,789.25c-10.49,7.71-10.63,7.71-2.32,18.44q118.63,153.16,237.28,306.3c11.82,15.27,11.26,11.15,1.11,26.62q-166.57,253.65-333.11,507.33c-5.43,8.28-11.14,11.6-21.13,11.5-67.55-.66-135.12-.61-202.68-1-18.88-.11-37.77-1.18-56.65-1.21-7.45,0-10.26-2.71-11.45-10.06-9.41-57.94-19.2-115.82-28.92-173.72q-21.36-127.14-42.81-254.28-23.64-139.52-47.55-279c-8.42-49.23-17-98.43-27.1-148-4.36,15.54-8.8,31.06-13.07,46.63q-110.86,404.7-221.51,809.46c-2.67,9.77-6.66,13.42-17.13,13.24-80.49-1.36-161-2.07-241.47-3.09-9.79-.13-19.57-1.33-29.34-1.21-7.34.09-10.36-2.47-11.61-9.93-7.92-47.21-16.34-94.33-24.56-141.49Q230,1375.18,207.26,1244.54q-25.68-147.15-51.41-294.3-25.57-145.57-51.46-291.1Q81.13,527.53,57.91,395.9C57.62,394.21,57.19,392.43,60.22,389.33Z" transform="translate(-57.71 -343.54)"/></svg>