<?xml version="1.0" encoding="UTF-8"?><svg xmlns="http://www.w3.org/2000/svg" viewBox="0 0 2338.95 1348.66"><defs><style>.d{fill:#1b1b1b;}.e{fill:#fefefe;}</style></defs><g id="a"/><g id="b"><g id="c"><g><path d="M2129.05,1348.66H210.03c0-8.82-.12-17.65,.07-26.47,.06-2.83-.76-3.64-3.58-3.57-7.66,.19-15.33-.06-22.98,.13-2.86,.07-3.62-.79-3.56-3.59,.19-7.65-.07-15.32,.13-22.97,.08-2.87-.82-3.62-3.6-3.54-7.16,.19-14.34-.23-21.48,.17-4.26,.24-5.08-1.07-5.07-5.15,.14-76.25,.1-152.51,.1-228.76,0-1-.12-2.01,.02-2.99,.35-2.47-.73-3.06-3.07-3.02-7.66,.14-15.33-.14-22.98,.14-3.38,.12-4.06-.98-4.03-4.14,.15-17.15-.07-34.3,.18-51.44,.06-3.87-1.06-4.68-4.68-4.53-7.15,.3-14.33-.12-21.48,.18-3.42,.14-4.03-1.05-4-4.17,.15-17.15-.08-34.3,.18-51.44,.06-3.91-1.13-4.65-4.7-4.5-6.98,.29-14-.2-20.98,.19-3.96,.22-4.54-1.17-4.5-4.71,.19-16.81-.1-33.63,.21-50.44,.08-4.36-1.25-5.2-5.24-4.99-6.64,.35-13.34-.23-19.98,.21-4.41,.29-5.05-1.29-4.99-5.24,.23-16.48-.04-32.97,.19-49.45,.06-4.1-.53-5.89-5.24-5.5-6.12,.51-12.34-.23-18.47,.23C1.48,809.68,0,808.41,0,803.05,.15,537.5,.13,271.94,.13,6.39Q.13,0,6.75,0C784.15,0,1561.55,0,2338.95,0V809.19c-8.66,0-17.32,.16-25.98-.08-3.27-.09-4.12,.82-4.09,4.08,.17,17.31-.01,34.62,.16,51.93,.03,3.26-.81,4.2-4.09,4.08-7.32-.26-14.66,.1-21.98-.16-3.28-.12-4.11,.84-4.08,4.09,.17,17.31-.01,34.62,.16,51.93,.03,3.27-.83,4.19-4.09,4.08-7.32-.25-14.66,.1-21.98-.16-3.3-.12-4.1,.86-4.07,4.1,.16,17.31-.01,34.62,.16,51.93,.03,3.28-.85,4.18-4.1,4.07-7.32-.25-14.66,.1-21.98-.16-3.31-.12-4.1,.88-4.07,4.1,.16,17.31-.02,34.62,.16,51.93,.03,3.29-.87,4.19-4.11,4.06-6.65-.26-13.35,.31-19.97-.2-5.1-.4-6.12,1.21-6.11,6.15,.18,76.41,.09,152.81,.21,229.22,0,3.69-.78,4.8-4.58,4.62-7.31-.34-14.65,.03-21.98-.17-2.81-.07-3.66,.71-3.59,3.56,.2,7.65-.06,15.32,.13,22.97,.07,2.82-.73,3.65-3.57,3.58-7.66-.2-15.32,.06-22.98-.13-2.83-.07-3.63,.74-3.57,3.57,.18,8.82,.07,17.64,.07,26.47ZM150.07,959.03c0,18.45,.05,36.89-.07,55.34-.02,3.28,.69,4.81,4.38,4.69,7.31-.25,14.63-.16,21.94-.03,2.81,.05,3.77-.96,3.76-3.76-.09-17.45-.1-34.9,.01-52.35,.02-3.15-1.19-3.97-4.11-3.92-8.64,.14-17.29,.06-25.94,.06,0-18.39-.08-36.79,.09-55.18,.03-3.62-.88-4.98-4.71-4.86-8.45,.27-16.91,.09-25.36,.09,0-18.39-.08-36.79,.09-55.18,.03-3.62-.88-4.98-4.71-4.86-8.45,.27-16.91,.09-25.36,.09,0-18.39-.08-36.79,.09-55.18,.03-3.62-.88-4.98-4.71-4.86-8.45,.27-16.91,.09-25.36,.09,0-227.89,0-455.77,.01-683.66,0-.67-.06-1.34,0-2,.31-2.86-1.03-3.77-3.79-3.71-6.33,.13-12.66,.02-18.99,.05-8.04,.04-7.21-.82-7.21,7.21-.01,224.89,0,449.78,0,674.67,0,1.17,.11,2.34-.02,3.49-.35,3.1,1.04,4.03,4.04,3.98,8.66-.15,17.32-.06,25.98-.06,0,18.39,.08,36.79-.09,55.18-.03,3.62,.88,4.98,4.71,4.86,8.45-.27,16.91-.09,25.36-.09,0,18.39,.08,36.79-.09,55.18-.03,3.62,.88,4.98,4.71,4.86,8.45-.27,16.91-.09,25.36-.09,0,18.39,.08,36.79-.09,55.18-.03,3.62,.88,4.98,4.71,4.86,8.45-.27,16.91-.09,25.36-.09Zm2098.91-149.85c8.45,0,16.92-.17,25.36,.09,3.83,.12,4.74-1.24,4.71-4.86-.16-18.39-.08-36.78-.08-55.18,7.66,0,15.32,0,22.98,.01q7.01,0,7.01-6.93c0-215.23,0-430.47,0-645.7,0-1-.08-2.01,.01-2.99,.28-2.81-.93-3.82-3.74-3.76-6.83,.14-13.67,.31-20.48-.05-4.52-.24-5.89,1.06-5.89,5.76,.12,217.9,.11,435.79,.11,653.69-8.45,0-16.92,.17-25.36-.09-3.83-.12-4.74,1.24-4.71,4.86,.16,18.39,.08,36.78,.08,55.18-8.45,0-16.92,.17-25.36-.09-3.83-.12-4.74,1.24-4.71,4.86,.16,18.39,.08,36.78,.08,55.18-8.13,0-16.28,.29-24.39-.13-4.82-.25-5.72,1.54-5.69,5.92,.18,28.04,.1,56.07,.1,84.11-8.65,0-17.29,.08-25.94-.06-2.93-.05-4.13,.78-4.11,3.92,.12,17.45,.1,34.9,.01,52.35-.01,2.8,.96,3.81,3.76,3.76,6.81-.14,13.64-.29,20.45,.04,4.42,.22,6.02-.91,5.94-5.7-.3-18.11-.13-36.23-.13-54.34,8.13,0,16.28-.29,24.39,.13,4.82,.25,5.72-1.54,5.69-5.92-.18-28.04-.1-56.07-.1-84.11,8.45,0,16.92-.17,25.36,.09,3.83,.12,4.74-1.24,4.71-4.86-.16-18.39-.08-36.78-.08-55.18Zm-839.64,329.75c.03-8.81-.04-17.63,.13-26.44,.05-2.67-.47-3.7-3.46-3.68-17.8,.15-35.6,.14-53.41,0-2.78-.02-3.21,.96-3.21,3.41,.06,47.73,.06,95.45,0,143.18,0,2.45,.43,3.43,3.21,3.41,17.8-.14,35.6-.14,53.41,0,2.98,.02,3.51-1,3.46-3.68-.18-8.81-.11-17.62-.13-26.44,8.81,.02,17.61-.04,26.42,.12,2.61,.05,3.73-.36,3.72-3.4-.13-27.74-.13-55.47,0-83.21,.01-3.05-1.1-3.45-3.72-3.4-8.8,.16-17.61,.1-26.42,.12ZM210.03,509.39v235.24c0,59.6,.04,119.2-.09,178.8,0,4.23,.61,5.89,5.45,5.78,16.48-.36,32.98,.08,49.46-.28,4.67-.1,5.3,1.4,5.24,5.51-.24,16.15,.08,32.3-.21,48.44-.08,4.71,.68,6.33,5.99,6.28,36.14-.3,72.29-.22,108.43-.06,4.26,.02,5.87-.67,5.76-5.47-.36-16.31,0-32.63-.23-48.94-.06-4.28,.69-5.86,5.49-5.75,16.48,.35,32.98,0,49.47,.23,3.96,.06,5.32-.63,5.24-4.99-.31-16.64,.01-33.3-.22-49.94-.06-3.98,.65-5.31,5-5.23,16.65,.3,33.31-.01,49.96,.22,3.98,.06,5.31-.65,5.23-5-.3-16.98-.05-33.96-.19-50.94-.03-3.08,.53-4.23,3.98-4.19,17.32,.2,34.65,.22,51.97,0,3.76-.05,4.2,1.27,4.17,4.52-.16,16.98,.03,33.96-.16,50.94-.04,3.57,.61,4.75,4.51,4.69,16.99-.26,33.98,0,50.97-.2,3.59-.04,4.75,.63,4.69,4.52-.25,16.98,0,33.96-.2,50.94-.04,3.6,.66,4.73,4.53,4.68,16.99-.25,33.98,0,50.97-.2,3.62-.04,4.73,.68,4.67,4.54-.25,17.14-.03,34.3-.18,51.44-.03,3.16,.67,4.15,4.03,4.14,37.31-.13,74.62-.12,111.93-.01,3.17,0,4.17-.67,4.14-4.03-.18-17.31,0-34.63-.16-51.94-.03-3.18,.7-4.16,4.04-4.13,16.82,.18,33.65-.08,50.47,.2,4.46,.07,5.66-.99,5.65-5.58-.15-110.05-.11-220.09-.11-330.14,0-146.17-.02-292.35,.09-438.52,0-3.98-.67-5.29-5-5.22-16.82,.3-33.65,.02-50.47,.21-3.56,.04-4.76-.59-4.7-4.5,.26-16.81-.03-33.63,.21-50.44,.06-4.02-.73-5.22-5.03-5.2-36.14,.2-72.29,.12-108.43,.12q-6.58,0-6.58,6.42c0,195.95-.01,391.91,.09,587.86,0,3.93-.59,5.33-4.97,5.25-16.65-.31-33.31-.26-49.97-.03-3.96,.05-5.32-.62-5.24-4.99,.31-16.64-.01-33.3,.22-49.94,.06-3.97-.64-5.31-5-5.23-16.65,.3-33.31-.01-49.97,.22-3.98,.06-5.3-.66-5.23-5,.3-16.98,.05-33.96,.19-50.94,.03-3.09-.54-4.22-3.98-4.18-17.32,.2-34.65,.22-51.97,0-3.76-.05-4.19,1.28-4.16,4.52,.16,16.98-.03,33.96,.16,50.94,.04,3.58-.62,4.75-4.52,4.69-16.99-.26-33.98,0-50.97-.2-3.6-.04-4.74,.65-4.68,4.52,.25,16.98,0,33.96,.2,50.94,.04,3.61-.67,4.73-4.53,4.67-16.32-.25-32.65-.11-48.97-.11q-6.56,0-6.56-6.45c0-175.97-.01-351.95,.09-527.92,0-3.98-.68-5.29-5.01-5.21-16.82,.3-33.65,.01-50.47,.21-3.57,.04-4.76-.59-4.7-4.51,.26-16.81-.03-33.63,.21-50.44,.06-4.02-.74-5.22-5.03-5.19-36.48,.2-72.96,.19-109.43,.01-4.36-.02-5.7,.85-5.7,5.53,.15,138.02,.12,276.03,.12,414.05ZM1859.18,89.91c-68.46,0-136.92,.03-205.38-.09-3.73,0-4.65,.86-4.6,4.6,.22,17.15,0,34.3,.18,51.44,.03,3.28-.86,4.1-4.1,4.07-17.32-.17-34.65,.02-51.97-.16-3.3-.03-4.06,.89-4.06,4.1,.08,137.19,.08,274.37,0,411.56,0,3.26,.83,4.11,4.08,4.08,17.32-.17,34.65,.01,51.97-.16,3.29-.03,4.1,.86,4.07,4.1-.17,16.81,.11,33.63-.2,50.44-.08,4.58,1.17,5.59,5.65,5.59,116.43-.13,232.87-.08,349.3-.21,4.17,0,5.11,.98,5.1,5.12-.15,56.27-.18,112.55,.03,168.82,.02,5.03-1.17,6.12-6.15,6.11-136.25-.15-272.51-.12-408.76-.14-2.81,0-5.17-.64-5.14,4.01,.23,37.29,.17,74.59,.05,111.88-.01,3.26,.82,4.11,4.08,4.08,17.32-.17,34.65,.01,51.97-.16,3.28-.03,4.11,.85,4.07,4.09-.17,17.31,.01,34.63-.16,51.94-.03,3.3,.88,4.06,4.1,4.06,137.25-.08,274.51-.08,411.76,0,3.26,0,4.11-.83,4.08-4.08-.17-17.31,.01-34.63-.16-51.94-.03-3.28,.86-4.1,4.1-4.07,17.32,.16,34.65-.02,51.97,.16,3.3,.03,4.06-.89,4.05-4.11-.08-137.19-.08-274.37,0-411.56,0-3.27-.83-4.11-4.08-4.08-17.32,.17-34.65-.01-51.97,.16-3.29,.03-4.1-.87-4.07-4.1,.17-16.81-.11-33.63,.2-50.44,.08-4.59-1.18-5.59-5.65-5.58-116.43,.13-232.87,.08-349.3,.21-4.17,0-5.11-.99-5.1-5.12,.15-56.27,.18-112.55-.03-168.82-.02-5.03,1.18-6.12,6.15-6.11,136.25,.15,272.51,.12,408.76,.14,2.82,0,5.16,.63,5.14-4.01-.23-37.29-.17-74.59-.05-111.88,.01-3.26-.83-4.11-4.08-4.08-17.32,.17-34.65-.01-51.97,.16-3.28,.03-4.1-.86-4.07-4.1,.17-16.98-.08-33.97,.19-50.94,.07-4.2-1.02-5.09-5.14-5.08-68.29,.14-136.59,.1-204.88,.1Zm-749.59,659.34c58.3,0,116.59,.05,174.89-.1,4.15-.01,5.12,.95,5.11,5.11-.16,56.77-.06,113.54-.2,170.31,0,3.71,.83,4.66,4.59,4.61,17.15-.23,34.31-.01,51.47-.18,3.26-.03,4.12,.82,4.09,4.08-.17,17.15,.05,34.3-.18,51.44-.05,3.75,.88,4.61,4.61,4.59,36.64-.16,73.29-.18,109.93,.02,4.53,.02,5.62-1.11,5.61-5.62-.15-76.58-.08-153.16-.2-229.74,0-3.7,.81-4.67,4.58-4.62,17.15,.23,34.31,.01,51.47,.18,3.25,.03,4.1-.8,4.09-4.07-.12-37.29-.12-74.58,0-111.88,.01-3.24-.79-4.13-4.07-4.09-16.65,.17-33.32-.14-49.97,.22-5.01,.11-6.14-1.13-6.13-6.14,.15-156.16,.11-312.32,.22-468.48,0-4.07-.82-5.23-5.06-5.16-16.98,.28-33.98,.03-50.97,.19-3.19,.03-4.16-.71-4.13-4.04,.18-17.15-.03-34.3,.18-51.44,.05-3.67-.77-4.65-4.57-4.63-36.81,.17-73.62,.17-110.43,0-4.1-.02-5.17,.87-5.15,5.07,.19,36.79,.05,73.58,.2,110.38,.01,3.67-.76,4.69-4.56,4.64-17.15-.24-34.31-.02-51.47-.18-3.21-.03-4.15,.74-4.12,4.05,.18,17.31,0,34.63,.16,51.94,.03,3.23-.77,4.14-4.06,4.1-16.99-.18-33.98,.07-50.97-.19-4.15-.06-5.14,.94-5.12,5.11,.19,36.79,.05,73.58,.2,110.38,.02,3.71-.83,4.66-4.59,4.61-17.15-.23-34.31-.01-51.47-.18-3.25-.03-4.12,.81-4.09,4.08,.17,17.31-.01,34.63,.16,51.94,.03,3.27-.83,4.11-4.09,4.08-16.99-.17-33.98,.08-50.97-.19-4.18-.07-5.12,.99-5.1,5.12,.18,36.79,.04,73.58,.2,110.38,.02,3.75-.89,4.64-4.61,4.59-17.15-.22-34.31,0-51.47-.18-3.29-.03-4.1,.87-4.07,4.1,.16,17.31-.02,34.63,.16,51.94,.03,3.3-.89,4.09-4.11,4.06-17.15-.16-34.31,.06-51.47-.18-3.8-.05-4.58,.96-4.57,4.63,.15,36.79,.17,73.59-.02,110.38-.02,4.2,1.04,5.09,5.14,5.08,58.3-.15,116.59-.1,174.89-.1Zm59.73-689.31c376.95,0,753.9,0,1130.85,0,1.33,0,2.68-.14,3.99,.03,3.64,.47,5.09-.81,4.89-4.67-.3-5.81-.04-11.65-.09-17.48-.08-8.97,1.12-7.83-8.08-7.83-754.23-.02-1508.47-.01-2262.7-.01-1.33,0-2.68,.11-4-.02-2.95-.29-4.19,.77-4.11,3.91,.18,7.32,.21,14.65,0,21.97-.1,3.42,1.28,4.45,4.41,4.13,1.48-.15,3-.03,4.49-.03,376.78,0,753.57,0,1130.35,0Zm.55,989.02c-307.15,0-614.3,0-921.46,0-1.5,0-3.01,.13-4.49-.03-3.15-.33-4.02,1.14-3.94,4.08,.16,6.16,.01,12.32,.05,18.48,.05,8.38-.93,7.42,7.5,7.42,614.64,.01,1229.28,.01,1843.91,.01,1.33,0,2.67-.11,4,.02,2.9,.27,3.74-1.1,3.68-3.83-.13-6.32-.02-12.65-.05-18.98-.04-8.02,.8-7.18-7.25-7.18-307.32,0-614.64,0-921.96,0Zm-.83,269.73h921.46c1.33,0,2.68-.12,4,.02,3.34,.37,4.79-.72,4.66-4.38-.25-7.15-.22-14.32-.01-21.47,.1-3.38-1.2-4.52-4.38-4.16-1.15,.13-2.33,.02-3.5,.02H247.85c-.67,0-1.34,.08-2-.01-4.39-.64-6.32,.78-5.94,5.63,.44,5.63,.07,11.31,.11,16.97,.06,8.33-.92,7.37,7.55,7.37,307.15,.01,614.3,.01,921.46,.01Zm960.03-134.87c0-23.47-.1-46.95,.1-70.42,.03-3.73-.87-4.63-4.6-4.6-26.98,.18-53.97,.18-80.95,0-3.74-.03-4.61,.88-4.6,4.6,.14,46.95,.14,93.9,0,140.84-.01,3.73,.86,4.62,4.6,4.6,26.98-.18,53.97-.18,80.95,0,3.74,.03,4.63-.87,4.6-4.6-.19-23.47-.1-46.95-.1-70.42Zm-1919.03-30.35c0,13.32,.26,26.64-.14,39.95-.14,4.8,1.47,5.55,5.76,5.48,16.32-.24,32.65,.12,48.96-.23,4.8-.1,5.72,1.46,5.48,5.76-.35,6.31-.46,12.68,.03,18.96,.38,4.84-1.48,5.55-5.75,5.48-16.15-.24-32.32,.19-48.46-.26-5.32-.15-6.3,1.56-5.98,6.29,.41,6.13,.35,12.33,.01,18.47-.23,4.12,.56,5.56,5.22,5.51,26.48-.28,52.96-.22,79.44-.04,4.08,.03,5.57-.54,5.52-5.22-.29-26.63-.26-53.27-.02-79.9,.04-4.37-1.29-5.04-5.24-4.98-16.48,.23-32.98-.12-49.46,.23-4.79,.1-5.72-1.46-5.48-5.76,.35-6.31,.46-12.68-.03-18.96-.38-4.84,1.48-5.54,5.75-5.48,16.32,.24,32.64-.04,48.96,.19,4.09,.06,5.87-.51,5.51-5.23-.51-6.62-.32-13.32-.05-19.96,.15-3.66-.56-5.02-4.71-4.99-26.81,.22-53.63,.24-80.44,0-4.38-.04-5.05,1.31-4.98,5.25,.26,13.15,.1,26.3,.1,39.45Zm749.62,30.36c0,23.64,.03,47.28-.04,70.92,0,2.63,.04,4.12,3.55,4.09,27.65-.17,55.3-.14,82.94-.03,2.83,.01,3.61-.75,3.57-3.57-.16-10.99-.07-21.97-.07-32.96,0-36.29-.06-72.58,.09-108.88,.02-3.72-.83-4.8-4.6-4.61-6.64,.35-13.34,.41-19.97-.01-4.56-.29-5.64,1.1-5.62,5.61,.2,36.62,.05,73.25,.21,109.87,.02,3.73-.84,4.79-4.6,4.6-6.64-.34-13.34-.41-19.97,.01-4.57,.29-5.64-1.11-5.61-5.62,.2-36.62,.05-73.25,.21-109.87,.02-3.74-.86-4.78-4.61-4.6-6.98,.34-14,.34-20.98,0-3.78-.19-4.62,.9-4.59,4.61,.19,23.47,.1,46.95,.1,70.42Zm-509.48-14.99c-38.29,0-76.58,.05-114.88-.08-4.01-.01-5.65,.88-5.41,5.2,.35,6.47,.39,12.99-.01,19.46-.29,4.57,1.38,5.5,5.66,5.48,41.45-.15,82.91-.09,124.37-.09,34.96,0,69.92-.05,104.89,.07,3.77,.01,5.39-.79,5.16-4.94-.35-6.47-.41-13,.01-19.46,.32-4.78-1.47-5.75-5.91-5.73-37.96,.16-75.92,.09-113.88,.09Zm749.41,29.97c38.29,0,76.58-.05,114.88,.08,3.87,.01,5.32-.96,5.1-5.01-.33-5.97-.08-11.98-.09-17.97q0-7.07-6.86-7.07c-73.92,0-147.84,0-221.76,0-2.33,0-4.68,.16-6.99-.04-3.23-.28-4.44,.89-4.33,4.22,.21,6.32,.06,12.64,.06,18.97q0,6.82,6.61,6.82c37.79,0,75.58,0,113.38,0Zm689.61,0c38.29,0,76.58-.05,114.88,.07,3.8,.01,5.38-.83,5.15-4.96-.35-6.3-.49-12.67,.03-18.96,.44-5.32-1.57-6.24-6.44-6.23-69.59,.15-139.18,.11-208.77,.11-6.66,0-13.33,.18-19.98-.07-3.63-.14-5.06,.84-4.89,4.71,.29,6.64,.38,13.33-.02,19.96-.28,4.6,1.42,5.48,5.67,5.47,38.12-.16,76.25-.09,114.38-.09Zm-1259.37,0c0,18.64,.08,37.29-.08,55.93-.03,3.26,.81,4.2,4.09,4.08,6.99-.26,14-.37,20.98,.03,4.19,.24,5.13-.98,5.11-5.12-.18-36.79-.04-73.58-.2-110.36-.02-3.72,.83-4.77,4.6-4.61,7.48,.33,14.99,0,22.48,.15,2.4,.05,3.1-.66,3.06-3.06-.14-7.99-.14-15.98,0-23.97,.04-2.41-.68-3.05-3.07-3.05-27.98,.08-55.96,.08-83.94,0-2.4,0-3.1,.65-3.06,3.06,.14,7.99,.14,15.98,0,23.97-.04,2.41,.67,3.1,3.07,3.05,7.66-.14,15.33,.12,22.98-.14,3.3-.11,4.1,.87,4.07,4.1-.16,18.64-.08,37.29-.08,55.93Zm194.6,0c33.46,0,66.92-.05,100.38,.07,3.54,.01,5.12-.7,4.95-4.64-.3-6.98-.25-13.98-.01-20.96,.12-3.55-1.14-4.54-4.58-4.5-14.32,.16-28.63,.07-42.95,.07-51.94,0-103.88,0-155.82,0q-6.61,0-6.61,6.82c0,5.99,.25,11.99-.09,17.97-.24,4.23,1.24,5.29,5.34,5.27,33.13-.15,66.26-.09,99.38-.09Zm884.85-14.99c0,23.64,.07,47.28-.08,70.92-.02,3.25,.79,4.2,4.08,4.09,7.49-.26,14.99-.21,22.48-.01,2.83,.07,3.61-.75,3.57-3.57-.16-10.98-.07-21.97-.07-32.96,0-36.29-.06-72.58,.09-108.88,.02-3.72-.83-4.79-4.6-4.61-6.98,.34-14,.34-20.98,0-3.76-.18-4.63,.88-4.6,4.6,.19,23.47,.1,46.95,.1,70.42Zm-134.92,14.99c23.3,0,46.6-.08,69.9,.08,3.81,.02,5.34-.86,5.14-4.97-.33-6.97-.24-13.97-.03-20.95,.1-3.39-1.23-4.22-4.38-4.18-10.82,.15-21.64,.06-32.45,.06-35.95,0-71.9,.03-107.85-.05-3.43,0-5.65,.21-5.4,4.69,.38,6.8,.35,13.65,0,20.45-.21,4.15,1.39,4.97,5.16,4.95,23.3-.15,46.6-.07,69.9-.07Z"/><path class="e" d="M210.03,509.39c0-138.02,.03-276.03-.12-414.05,0-4.68,1.33-5.55,5.7-5.53,36.48,.18,72.96,.19,109.43-.01,4.29-.02,5.09,1.17,5.03,5.19-.24,16.81,.05,33.63-.21,50.44-.06,3.91,1.13,4.55,4.7,4.51,16.82-.19,33.65,.09,50.47-.21,4.33-.08,5.01,1.23,5.01,5.21-.11,175.97-.09,351.95-.09,527.92q0,6.45,6.56,6.45c16.32,0,32.65-.15,48.97,.11,3.87,.06,4.58-1.06,4.53-4.67-.2-16.98,.05-33.96-.2-50.94-.06-3.88,1.08-4.57,4.68-4.52,16.99,.2,33.98-.06,50.97,.2,3.9,.06,4.56-1.11,4.52-4.69-.2-16.98,0-33.96-.16-50.94-.03-3.24,.4-4.57,4.16-4.52,17.32,.23,34.65,.21,51.97,0,3.44-.04,4.01,1.1,3.98,4.18-.14,16.98,.11,33.97-.19,50.94-.08,4.34,1.24,5.06,5.23,5,16.65-.24,33.32,.08,49.97-.22,4.36-.08,5.05,1.26,5,5.23-.23,16.65,.08,33.3-.22,49.94-.08,4.37,1.29,5.04,5.24,4.99,16.65-.23,33.32-.28,49.97,.03,4.39,.08,4.98-1.31,4.97-5.25-.1-195.95-.09-391.91-.09-587.86q0-6.42,6.58-6.42c36.14,0,72.29,.09,108.43-.12,4.3-.02,5.09,1.18,5.03,5.2-.24,16.81,.05,33.63-.21,50.44-.06,3.92,1.14,4.54,4.7,4.5,16.82-.19,33.65,.09,50.47-.21,4.34-.08,5.01,1.24,5,5.22-.11,146.17-.09,292.35-.09,438.52,0,110.05-.03,220.09,.11,330.14,0,4.59-1.19,5.65-5.65,5.58-16.82-.28-33.65-.01-50.47-.2-3.34-.04-4.07,.95-4.04,4.13,.16,17.31-.02,34.63,.16,51.94,.04,3.35-.97,4.03-4.14,4.03-37.31-.11-74.62-.12-111.93,.01-3.35,.01-4.06-.97-4.03-4.14,.15-17.15-.07-34.3,.18-51.44,.06-3.86-1.05-4.58-4.67-4.54-16.99,.2-33.98-.05-50.97,.2-3.87,.06-4.57-1.07-4.53-4.68,.2-16.98-.06-33.96,.2-50.94,.06-3.89-1.1-4.56-4.69-4.52-16.99,.2-33.98-.06-50.97,.2-3.91,.06-4.55-1.12-4.51-4.69,.19-16.98,0-33.96,.16-50.94,.03-3.25-.41-4.56-4.17-4.52-17.32,.23-34.65,.21-51.97,0-3.45-.04-4,1.11-3.98,4.19,.14,16.98-.11,33.97,.19,50.94,.08,4.35-1.25,5.06-5.23,5-16.65-.24-33.31,.08-49.96-.22-4.35-.08-5.06,1.25-5,5.23,.24,16.65-.08,33.3,.22,49.94,.08,4.36-1.27,5.05-5.24,4.99-16.49-.23-32.98,.12-49.47-.23-4.79-.1-5.55,1.47-5.49,5.75,.24,16.31-.12,32.63,.23,48.94,.11,4.81-1.5,5.49-5.76,5.47-36.14-.16-72.29-.23-108.43,.06-5.31,.04-6.08-1.57-5.99-6.28,.29-16.14-.03-32.3,.21-48.44,.06-4.11-.57-5.61-5.24-5.51-16.48,.36-32.98-.08-49.46,.28-4.85,.11-5.46-1.55-5.45-5.78,.13-59.6,.09-119.2,.09-178.8v-235.24Z"/><path class="e" d="M1859.18,89.91c68.29,0,136.59,.04,204.88-.1,4.11,0,5.21,.89,5.14,5.08-.27,16.98-.03,33.96-.19,50.94-.03,3.24,.79,4.13,4.07,4.1,17.32-.17,34.65,0,51.97-.16,3.26-.03,4.09,.82,4.08,4.08-.12,37.29-.18,74.59,.05,111.88,.03,4.65-2.32,4.01-5.14,4.01-136.25-.01-272.51,.02-408.76-.14-4.97,0-6.17,1.08-6.15,6.11,.21,56.27,.18,112.55,.03,168.82-.01,4.13,.92,5.12,5.1,5.12,116.43-.13,232.87-.08,349.3-.21,4.47,0,5.73,1,5.65,5.58-.31,16.81-.03,33.63-.2,50.44-.03,3.23,.78,4.13,4.07,4.1,17.32-.17,34.65,0,51.97-.16,3.25-.03,4.09,.81,4.08,4.08-.09,137.19-.09,274.37,0,411.56,0,3.22-.75,4.14-4.05,4.11-17.32-.18-34.65,0-51.97-.16-3.24-.03-4.13,.79-4.1,4.07,.17,17.31,0,34.63,.16,51.94,.03,3.25-.82,4.08-4.08,4.08-137.25-.09-274.51-.09-411.76,0-3.22,0-4.14-.76-4.1-4.06,.17-17.31,0-34.63,.16-51.94,.03-3.24-.79-4.13-4.07-4.09-17.32,.17-34.65,0-51.97,.16-3.26,.03-4.09-.82-4.08-4.08,.12-37.29,.18-74.59-.05-111.88-.03-4.65,2.32-4.01,5.14-4.01,136.25,.01,272.51-.02,408.76,.14,4.97,0,6.17-1.09,6.15-6.11-.21-56.27-.18-112.55-.03-168.82,.01-4.13-.93-5.12-5.1-5.12-116.43,.13-232.87,.08-349.3,.21-4.47,0-5.73-1-5.65-5.59,.3-16.81,.03-33.63,.2-50.44,.03-3.24-.78-4.13-4.07-4.1-17.32,.17-34.65,0-51.97,.16-3.25,.03-4.09-.82-4.08-4.08,.09-137.19,.09-274.37,0-411.56,0-3.22,.76-4.14,4.06-4.1,17.32,.18,34.65,0,51.97,.16,3.24,.03,4.13-.79,4.1-4.07-.17-17.15,.05-34.3-.18-51.44-.05-3.73,.87-4.6,4.6-4.6,68.46,.13,136.92,.09,205.38,.09Z"/><path class="e" d="M1109.58,749.25c-58.3,0-116.59-.05-174.89,.1-4.1,.01-5.16-.88-5.14-5.08,.19-36.79,.17-73.58,.02-110.38-.02-3.67,.77-4.68,4.57-4.63,17.15,.24,34.31,.02,51.47,.18,3.22,.03,4.14-.76,4.11-4.06-.18-17.31,0-34.63-.16-51.94-.03-3.23,.78-4.13,4.07-4.1,17.15,.17,34.31-.04,51.47,.18,3.72,.05,4.63-.84,4.61-4.59-.16-36.79-.02-73.58-.2-110.38-.02-4.13,.92-5.19,5.1-5.12,16.99,.27,33.98,.02,50.97,.19,3.26,.03,4.12-.81,4.09-4.08-.17-17.31,.01-34.63-.16-51.94-.03-3.27,.83-4.11,4.09-4.08,17.15,.17,34.31-.05,51.47,.18,3.76,.05,4.6-.9,4.59-4.61-.16-36.79-.02-73.58-.2-110.38-.02-4.16,.97-5.17,5.12-5.11,16.99,.26,33.98,.02,50.97,.19,3.3,.03,4.1-.88,4.06-4.1-.16-17.31,.02-34.63-.16-51.94-.03-3.31,.91-4.08,4.12-4.05,17.15,.16,34.31-.06,51.47,.18,3.81,.05,4.58-.97,4.56-4.64-.15-36.79-.01-73.59-.2-110.38-.02-4.21,1.05-5.09,5.15-5.07,36.81,.18,73.62,.17,110.43,0,3.8-.02,4.61,.96,4.57,4.63-.21,17.14,0,34.3-.18,51.44-.04,3.33,.94,4.07,4.13,4.04,16.99-.16,33.98,.09,50.97-.19,4.24-.07,5.06,1.09,5.06,5.16-.12,156.16-.07,312.32-.22,468.48,0,5,1.12,6.24,6.13,6.14,16.65-.36,33.31-.04,49.97-.22,3.28-.03,4.08,.85,4.07,4.09-.12,37.29-.12,74.58,0,111.88,.01,3.27-.84,4.1-4.09,4.07-17.15-.17-34.31,.05-51.47-.18-3.77-.05-4.59,.92-4.58,4.62,.12,76.58,.05,153.16,.2,229.74,0,4.51-1.08,5.64-5.61,5.62-36.64-.2-73.29-.18-109.93-.02-3.72,.02-4.66-.85-4.61-4.59,.23-17.14,0-34.29,.18-51.44,.03-3.26-.83-4.11-4.09-4.08-17.15,.17-34.31-.05-51.47,.18-3.76,.05-4.6-.9-4.59-4.61,.13-56.77,.04-113.54,.2-170.31,.01-4.15-.96-5.12-5.11-5.11-58.3,.15-116.59,.1-174.89,.1Zm179.9-270.12c0-47.95-.05-95.89,.09-143.84,.01-4.27-.69-5.86-5.48-5.75-16.32,.35-32.65,.28-48.97,.04-4.3-.06-5.78,.72-5.74,5.49,.24,36.46,.06,72.92,.22,109.38,.02,3.95-.62,5.31-4.99,5.23-16.65-.31-33.31,.01-49.97-.22-3.97-.06-5.31,.65-5.23,5,.3,16.64-.01,33.3,.22,49.94,.06,3.98-.67,5.3-5.01,5.22-16.65-.3-33.31,.02-49.97-.22-4-.06-5.24,.7-5.21,5.01,.2,36.46,.19,72.92,.02,109.38-.02,4.33,.79,5.73,5.51,5.72,56.3-.19,112.6-.17,168.89-.03,4.32,.01,5.75-.77,5.73-5.5-.21-48.28-.13-96.56-.13-144.84Z"/><path class="d" d="M1169.31,59.94c-376.78,0-753.57,0-1130.35,0-1.5,0-3.01-.13-4.49,.03-3.13,.32-4.51-.71-4.41-4.13,.22-7.32,.19-14.65,0-21.97-.08-3.15,1.16-4.2,4.11-3.91,1.32,.13,2.66,.02,4,.02,754.23,0,1508.47,0,2262.7,.01,9.2,0,8-1.14,8.08,7.83,.05,5.83-.21,11.67,.09,17.48,.2,3.86-1.25,5.14-4.89,4.67-1.31-.17-2.66-.03-3.99-.03-376.95,0-753.9,0-1130.85,0Z"/><path class="d" d="M1169.86,1048.96c307.32,0,614.64,0,921.96,0,8.05,0,7.21-.85,7.25,7.18,.03,6.33-.08,12.65,.05,18.98,.06,2.72-.78,4.1-3.68,3.83-1.32-.12-2.66-.02-4-.02-614.64,0-1229.28,0-1843.91-.01-8.43,0-7.44,.96-7.5-7.42-.04-6.16,.1-12.32-.05-18.48-.08-2.94,.78-4.41,3.94-4.08,1.48,.16,3,.03,4.49,.03,307.15,0,614.3,0,921.46,0Z"/><path class="d" d="M1169.03,1318.69c-307.15,0-614.3,0-921.46-.01-8.47,0-7.5,.96-7.55-7.37-.04-5.66,.33-11.35-.11-16.97-.38-4.85,1.55-6.27,5.94-5.63,.65,.1,1.33,.01,2,.01h1843.41c1.17,0,2.34,.11,3.5-.02,3.17-.36,4.48,.78,4.38,4.16-.21,7.15-.24,14.32,.01,21.47,.13,3.66-1.32,4.75-4.66,4.38-1.32-.15-2.66-.02-4-.02h-921.46Z"/><path class="d" d="M60.12,779.21c-8.66,0-17.32-.09-25.98,.06-2.99,.05-4.38-.88-4.04-3.98,.13-1.15,.02-2.33,.02-3.49,0-224.89,0-449.78,0-674.67,0-8.03-.82-7.17,7.21-7.21,6.33-.03,12.66,.09,18.99-.05,2.75-.06,4.1,.85,3.79,3.71-.07,.66,0,1.33,0,2,0,227.89,0,455.77-.01,683.66l.02-.02Z"/><path class="d" d="M2278.99,749.27c0-217.9,0-435.79-.11-653.69,0-4.69,1.37-5.99,5.89-5.76,6.81,.36,13.65,.19,20.48,.05,2.81-.06,4.02,.96,3.74,3.76-.1,.99-.01,2-.01,2.99,0,215.23,0,430.47,0,645.7q0,6.92-7.01,6.93c-7.66,0-15.32,0-22.98-.01l.02,.02Z"/><path class="e" d="M2129.05,1183.82c0,23.47-.09,46.95,.1,70.42,.03,3.73-.86,4.63-4.6,4.6-26.98-.18-53.97-.18-80.95,0-3.74,.02-4.61-.87-4.6-4.6,.14-46.95,.14-93.9,0-140.84-.01-3.73,.86-4.63,4.6-4.6,26.98,.18,53.97,.18,80.95,0,3.74-.02,4.63,.87,4.6,4.6-.19,23.47-.1,46.95-.1,70.42Zm-29.98-.45c0-13.65-.07-27.3,.06-40.95,.03-2.74-.59-3.71-3.51-3.63-7.66,.21-15.32,.19-22.98,0-2.75-.06-3.63,.62-3.62,3.52,.11,27.63,.1,55.27,0,82.9,0,2.74,.59,3.71,3.51,3.63,7.49-.21,14.99-.23,22.48,0,3.18,.1,4.19-.67,4.14-4.03-.21-13.81-.09-27.63-.09-41.45Z"/><path class="e" d="M210.03,1153.47c0-13.15,.16-26.3-.1-39.45-.08-3.94,.59-5.29,4.98-5.25,26.81,.24,53.63,.23,80.44,0,4.15-.03,4.86,1.33,4.71,4.99-.27,6.65-.46,13.34,.05,19.96,.36,4.71-1.42,5.29-5.51,5.23-16.32-.23-32.64,.05-48.96-.19-4.27-.06-6.13,.65-5.75,5.48,.5,6.29,.38,12.66,.03,18.96-.24,4.3,.68,5.86,5.48,5.76,16.48-.35,32.97,0,49.46-.23,3.95-.06,5.28,.61,5.24,4.98-.24,26.63-.27,53.27,.02,79.9,.05,4.67-1.43,5.25-5.52,5.22-26.48-.18-52.96-.24-79.44,.04-4.66,.05-5.45-1.39-5.22-5.51,.34-6.14,.4-12.33-.01-18.47-.31-4.73,.66-6.44,5.98-6.29,16.14,.44,32.31,.02,48.46,.26,4.27,.06,6.13-.65,5.75-5.48-.5-6.29-.38-12.66-.03-18.96,.24-4.3-.68-5.86-5.48-5.76-16.31,.35-32.64,0-48.96,.23-4.28,.06-5.9-.68-5.76-5.48,.39-13.31,.14-26.63,.14-39.95Z"/><path class="e" d="M959.65,1183.83c0-23.47,.09-46.95-.1-70.42-.03-3.71,.81-4.8,4.59-4.61,6.98,.34,14,.34,20.98,0,3.75-.18,4.62,.86,4.61,4.6-.16,36.62,0,73.25-.21,109.87-.02,4.51,1.04,5.91,5.61,5.62,6.64-.42,13.33-.36,19.97-.01,3.76,.19,4.62-.87,4.6-4.6-.16-36.62,0-73.25-.21-109.87-.02-4.52,1.06-5.9,5.62-5.61,6.64,.42,13.33,.36,19.97,.01,3.77-.2,4.61,.89,4.6,4.61-.16,36.29-.09,72.58-.09,108.88,0,10.99-.1,21.98,.07,32.96,.04,2.82-.74,3.58-3.57,3.57-27.65-.11-55.3-.14-82.94,.03-3.51,.02-3.56-1.46-3.55-4.09,.07-23.64,.04-47.28,.04-70.92Z"/><path class="d" d="M450.16,1168.84c37.96,0,75.92,.07,113.88-.09,4.44-.02,6.23,.95,5.91,5.73-.43,6.46-.36,12.99-.01,19.46,.22,4.16-1.39,4.96-5.16,4.94-34.96-.12-69.92-.07-104.89-.07-41.46,0-82.91-.06-124.37,.09-4.27,.02-5.94-.91-5.66-5.48,.4-6.46,.36-12.99,.01-19.46-.24-4.32,1.4-5.22,5.41-5.2,38.29,.14,76.58,.08,114.88,.08Z"/><path class="d" d="M1199.58,1198.81c-37.79,0-75.58,0-113.38,0q-6.61,0-6.61-6.82c0-6.32,.15-12.65-.06-18.97-.11-3.33,1.1-4.5,4.33-4.22,2.31,.2,4.66,.04,6.99,.04,73.92,0,147.84,0,221.76,0q6.86,0,6.86,7.07c0,5.99-.25,11.99,.09,17.97,.22,4.05-1.23,5.02-5.1,5.01-38.29-.13-76.58-.08-114.88-.08Z"/><path class="d" d="M1889.18,1198.81c-38.13,0-76.25-.06-114.38,.09-4.25,.02-5.95-.87-5.67-5.47,.41-6.63,.32-13.32,.02-19.96-.17-3.86,1.26-4.85,4.89-4.71,6.65,.25,13.32,.07,19.98,.07,69.59,0,139.18,.05,208.77-.11,4.87-.01,6.88,.92,6.44,6.23-.52,6.28-.38,12.65-.03,18.96,.23,4.13-1.35,4.97-5.15,4.96-38.29-.12-76.58-.07-114.88-.07Z"/><path class="e" d="M629.82,1198.81c0-18.64-.08-37.29,.08-55.93,.03-3.23-.77-4.21-4.07-4.1-7.65,.26-15.32,0-22.98,.14-2.39,.05-3.11-.64-3.07-3.05,.15-7.99,.14-15.98,0-23.97-.04-2.4,.66-3.06,3.06-3.06,27.98,.08,55.96,.08,83.94,0,2.39,0,3.11,.63,3.07,3.05-.15,7.99-.14,15.98,0,23.97,.04,2.4-.65,3.11-3.06,3.06-7.49-.15-15,.18-22.48-.15-3.77-.17-4.61,.89-4.6,4.61,.16,36.79,.02,73.58,.2,110.36,.02,4.14-.91,5.35-5.11,5.12-6.97-.39-13.99-.29-20.98-.03-3.27,.12-4.11-.82-4.09-4.08,.16-18.64,.08-37.29,.08-55.93Z"/><path class="e" d="M1409.34,1228.71c.03,8.81-.04,17.63,.13,26.44,.05,2.67-.47,3.7-3.46,3.68-17.8-.15-35.6-.14-53.41,0-2.78,.02-3.21-.96-3.21-3.41,.06-47.73,.06-95.45,0-143.18,0-2.45,.43-3.43,3.21-3.41,17.8,.14,35.6,.14,53.41,0,2.98-.02,3.51,1,3.46,3.68-.18,8.81-.11,17.62-.13,26.44l.14-.14c-8.81,.02-17.61,.14-26.42,.01-2.62-.04-3.73,.37-3.71,3.41,.13,27.73,.13,55.47,0,83.2-.01,3.04,1.1,3.45,3.71,3.41,8.8-.12,17.61,0,26.42,.01l-.14-.14Z"/><path class="d" d="M824.41,1198.81c-33.13,0-66.26-.07-99.38,.09-4.1,.02-5.59-1.04-5.34-5.27,.34-5.97,.09-11.98,.09-17.97q0-6.82,6.61-6.82c51.94,0,103.88,0,155.82,0,14.32,0,28.63,.09,42.95-.07,3.44-.04,4.7,.95,4.58,4.5-.24,6.98-.29,13.98,.01,20.96,.17,3.95-1.41,4.66-4.95,4.64-33.46-.11-66.92-.07-100.38-.07Z"/><path class="e" d="M1709.27,1183.82c0-23.47,.09-46.95-.1-70.42-.03-3.73,.84-4.79,4.6-4.6,6.98,.34,14,.34,20.98,0,3.77-.18,4.61,.89,4.6,4.61-.16,36.29-.09,72.58-.09,108.88,0,10.99-.1,21.98,.07,32.96,.04,2.82-.73,3.65-3.57,3.57-7.49-.2-14.99-.24-22.48,.01-3.28,.11-4.1-.84-4.08-4.09,.14-23.64,.08-47.28,.08-70.92Z"/><path class="d" d="M1574.35,1198.81c-23.3,0-46.6-.07-69.9,.07-3.78,.02-5.37-.8-5.16-4.95,.34-6.8,.38-13.65,0-20.45-.25-4.48,1.96-4.7,5.4-4.69,35.95,.08,71.9,.05,107.85,.05,10.82,0,21.64,.09,32.45-.06,3.15-.04,4.49,.79,4.38,4.18-.21,6.98-.31,13.98,.03,20.95,.2,4.11-1.33,4.99-5.14,4.97-23.3-.15-46.6-.08-69.9-.08Z"/><path class="d" d="M2219,869.12c0,28.04-.08,56.08,.1,84.11,.03,4.38-.88,6.17-5.69,5.92-8.11-.42-16.26-.12-24.39-.13l.02,.02c0-28.04,.08-56.08-.1-84.11-.03-4.38,.88-6.17,5.69-5.92,8.11,.42,16.26,.12,24.39,.13l-.02-.02Z"/><path class="e" d="M1409.34,1138.94c8.81-.02,17.61,.04,26.42-.12,2.61-.05,3.73,.36,3.72,3.4-.13,27.74-.13,55.47,0,83.21,.01,3.05-1.1,3.45-3.72,3.4-8.8-.16-17.61-.1-26.42-.12l.14,.14v-90.05l-.14,.14Z"/><path class="d" d="M2278.97,749.24c0,18.39-.08,36.79,.08,55.18,.03,3.62-.88,4.98-4.71,4.86-8.45-.27-16.91-.09-25.36-.09l.02,.02c0-18.39,.08-36.79-.08-55.18-.03-3.62,.88-4.98,4.71-4.86,8.45,.27,16.91,.09,25.36,.09l-.02-.02Z"/><path class="d" d="M90.1,839.15c-8.45,0-16.92-.17-25.36,.09-3.82,.12-4.74-1.23-4.71-4.86,.16-18.39,.08-36.79,.09-55.18l-.02,.02c8.45,0,16.92,.17,25.36-.09,3.82-.12,4.74,1.23,4.71,4.86-.16,18.39-.08,36.79-.09,55.18l.02-.02Z"/><path class="d" d="M2219.02,869.15c0-18.39,.08-36.79-.08-55.18-.03-3.62,.88-4.98,4.71-4.86,8.45,.27,16.91,.09,25.36,.09l-.02-.02c0,18.39-.08,36.79,.08,55.18,.03,3.62-.88,4.98-4.71,4.86-8.45-.27-16.91-.09-25.36-.09l.02,.02Z"/><path class="d" d="M120.09,899.09c-8.45,0-16.92-.17-25.36,.09-3.82,.12-4.74-1.23-4.71-4.86,.16-18.39,.08-36.79,.09-55.18l-.02,.02c8.45,0,16.92,.17,25.36-.09,3.82-.12,4.74,1.23,4.71,4.86-.16,18.39-.08,36.79-.09,55.18l.02-.02Z"/><path class="d" d="M150.07,959.03c-8.45,0-16.92-.17-25.36,.09-3.82,.12-4.74-1.23-4.71-4.86,.16-18.39,.08-36.79,.09-55.18l-.02,.02c8.45,0,16.92,.17,25.36-.09,3.82-.12,4.74,1.23,4.71,4.86-.16,18.39-.08,36.79-.09,55.18l.02-.02Z"/><path class="d" d="M2189.01,959.03c0,18.11-.17,36.23,.13,54.34,.08,4.79-1.52,5.91-5.94,5.7-6.8-.33-13.63-.18-20.45-.04-2.8,.06-3.78-.96-3.76-3.76,.09-17.45,.1-34.9-.01-52.35-.02-3.15,1.18-3.97,4.11-3.92,8.64,.14,17.29,.06,25.94,.06l-.02-.02Z"/><path class="d" d="M150.05,959.06c8.65,0,17.29,.08,25.94-.06,2.93-.05,4.14,.77,4.11,3.92-.12,17.45-.1,34.9-.01,52.35,.01,2.8-.95,3.81-3.76,3.76-7.31-.13-14.64-.22-21.94,.03-3.69,.13-4.4-1.4-4.38-4.69,.12-18.45,.06-36.89,.07-55.34l-.02,.02Z"/><path d="M1289.48,479.13c0,48.28-.08,96.56,.13,144.84,.02,4.73-1.41,5.51-5.73,5.5-56.3-.14-112.6-.16-168.89,.03-4.72,.02-5.53-1.39-5.51-5.72,.17-36.46,.19-72.92-.02-109.38-.02-4.32,1.21-5.07,5.21-5.01,16.65,.24,33.31-.08,49.97,.22,4.34,.08,5.07-1.24,5.01-5.22-.24-16.64,.08-33.3-.22-49.94-.08-4.35,1.26-5.06,5.23-5,16.65,.23,33.31-.08,49.97,.22,4.37,.08,5.01-1.28,4.99-5.23-.16-36.46,.01-72.92-.22-109.38-.03-4.77,1.45-5.55,5.74-5.49,16.32,.24,32.65,.32,48.97-.04,4.79-.1,5.5,1.48,5.48,5.75-.15,47.95-.09,95.89-.09,143.84Z"/><path d="M2099.07,1183.37c0,13.82-.12,27.63,.09,41.45,.05,3.36-.96,4.13-4.14,4.03-7.49-.23-14.99-.21-22.48,0-2.92,.08-3.52-.89-3.51-3.63,.1-27.63,.1-55.27,0-82.9-.01-2.9,.87-3.58,3.62-3.52,7.66,.18,15.32,.2,22.98,0,2.92-.08,3.54,.89,3.51,3.63-.13,13.65-.06,27.3-.06,40.95Z"/><path d="M1409.49,1138.8v90.05c-8.81-.02-17.61-.14-26.42-.01-2.62,.04-3.73-.37-3.71-3.41,.13-27.73,.13-55.47,0-83.2-.01-3.04,1.1-3.45,3.71-3.41,8.8,.12,17.61,0,26.42-.01Z"/></g></g></g></svg>